<svg id="Camada_1" data-name="Camada 1" xmlns="http://www.w3.org/2000/svg" viewBox="0 0 1185.63 320.55"><defs><style>.cls-1,.cls-2,.cls-3{isolation:isolate;}.cls-2,.cls-3{font-size:130.3px;fill:#b46000;font-family:Prosto;}.cls-2{letter-spacing:-0.03em;}.cls-4{letter-spacing:-0.03em;}.cls-5{fill:#6e9b27;}.cls-6{fill:#81b718;}</style></defs><g id="Camada_1-2" data-name="Camada 1"><g class="cls-1"><text class="cls-2" transform="translate(108 269.86)">F</text><text class="cls-3" transform="translate(183.97 269.86)">arm Sandb<tspan class="cls-4" x="762.9" y="0">o</tspan><tspan x="850.2" y="0">x</tspan></text></g></g><g id="Camada_2" data-name="Camada 2"><path class="cls-5" d="M937.12,65.42a55.51,55.51,0,0,0,3.4,32.86,56.77,56.77,0,0,0,17,21.53c19.4,15,42.39,12.11,47.59,11.33.58-3.55,4.85-32.33-13.6-49.85-11.16-10.61-26.81-13.44-34-14.73A83.93,83.93,0,0,0,937.12,65.42Z"/><path class="cls-6" d="M1019.84,124.34c-1-9.22-1-24.31,6.8-39.65,12.93-25.5,38.52-34.29,47.58-37.4,14-4.79,27.18-5.39,34-5.66A137.1,137.1,0,0,1,1132,42.76c.38,5.54,2.48,47.09-30.59,78.18-31.83,29.93-71.21,26.65-77.05,26.06a110.45,110.45,0,0,1,48.72-66.85,71.9,71.9,0,0,0-27.19,11.33A73.1,73.1,0,0,0,1019.84,124.34Z"/></g></svg>