<?xml version="1.0" encoding="UTF-8"?>
<svg viewBox="0 0 276 106" xmlns="http://www.w3.org/2000/svg">
<defs>
<style>.cls-1{fill:#fcfcfc;}.cls-1,.cls-2{fill-rule:evenodd;}.cls-2{fill:#fff;}</style>
</defs>
<g data-name="Page 1">
<g data-name="Camada 1">
<path class="cls-1" d="M113.7,55.21q-.36,8.72-2.09,12.49a7.55,7.55,0,0,1-7.39,4.63H90.74V67.66h13.38c2,0,3.5-.5,4.38-1.51s1.59-3.18,1.94-6.27H90.64q.31-8.67,2.09-12.49a7.6,7.6,0,0,1,7.41-4.63h13.48v4.67H100.24q-3.06,0-4.35,1.56c-1,1.11-1.62,3.19-2,6.22Zm25.79-12.45V57.62a27.58,27.58,0,0,1-.62,6.19A14.45,14.45,0,0,1,137,68.44a8.36,8.36,0,0,1-3,2.9,8,8,0,0,1-4,1H116.61V42.76h3v24.9l2,0,2.45.06c.45,0,.85,0,1.22,0h2.39q5.07,0,6.64-1.4,1.77-1.56,2.11-6.93c0-.72.07-2.46.09-5.21s0-6.58,0-11.48Zm26.3,29.57H142.9V57.47a28.24,28.24,0,0,1,.62-6.19,14.93,14.93,0,0,1,1.83-4.63,8.36,8.36,0,0,1,3-2.9,8,8,0,0,1,4-1h13.49v4.67H152.4q-3.59,0-5.05,2.29c-1,1.53-1.46,4.17-1.46,7.9v10h19.9v4.67Zm25.69,0H168.6V57.47a27.65,27.65,0,0,1,.62-6.19,14.45,14.45,0,0,1,1.83-4.63,8.36,8.36,0,0,1,3-2.9,8,8,0,0,1,4-1h13.48v4.67H178.1q-3.58,0-5,2.29c-1,1.53-1.47,4.17-1.47,7.9v10h19.9v4.67Zm25.87,0H194.47V57.47q0-6.88,2.46-10.82a7.77,7.77,0,0,1,6.94-3.89h13.48v4.67H204a7.77,7.77,0,0,0-2.76.43,4.45,4.45,0,0,0-1.92,1.36,6.63,6.63,0,0,0-1.19,2.41,18,18,0,0,0-.57,3.58h19.82v4.67h-19.9v7.78h19.9v4.67Zm26-17.12q-.36,8.72-2.09,12.49a7.55,7.55,0,0,1-7.39,4.63H220.34V67.66h13.38c2,0,3.5-.5,4.38-1.51S239.69,63,240,59.88h-19.8q.31-8.67,2.09-12.49a7.6,7.6,0,0,1,7.41-4.63h13.48v4.67H229.84q-3.06,0-4.35,1.56c-1,1.11-1.62,3.19-2,6.22Zm25.89,0q-.35,8.72-2.09,12.49a7.53,7.53,0,0,1-7.39,4.63H246.23V67.66h13.38c2,0,3.5-.5,4.38-1.51s1.59-3.18,1.94-6.27h-19.8q.33-8.67,2.09-12.49a7.62,7.62,0,0,1,7.41-4.63h13.49v4.67H255.73q-3.06,0-4.35,1.56c-1,1.11-1.62,3.19-2,6.22Z"/>
<path class="cls-1" d="M203.67,79.09c0,.14.05.29.07.44a4.75,4.75,0,0,1,0,.6v4.76h-2V77.83h1.87l6.67,4.59,6.22-4.59h2.1v7.06h-2.1V80.13c0-.06,0-.22,0-.47s0-.44.06-.57c-.17.19-.32.34-.46.47l-.35.3-5.25,3.92H210L204.59,80l-.07,0a3,3,0,0,1-.85-.82ZM178,84.89V77.83h13.21v1H180.25v2h6.67v.94h-6.67v2.24h11v1Zm-15.26-6.1v6.1H160.4v-6.1h-6.27v-1H169v1ZM117,84.89V77.83h2.3v7.06Zm-23.87-6.1v2h8.65a6.15,6.15,0,0,1,2.5.35,1.33,1.33,0,0,1,.67,1.31v.8a1.35,1.35,0,0,1-.66,1.32,6.11,6.11,0,0,1-2.51.35h-8a6.31,6.31,0,0,1-2.55-.35,1.18,1.18,0,0,1-.56-.64h12.23V81.78H94.25a6,6,0,0,1-2.53-.35,1.34,1.34,0,0,1-.66-1.31V79.5a1.37,1.37,0,0,1,.66-1.32,6.19,6.19,0,0,1,2.53-.35h7.31a6.27,6.27,0,0,1,2.52.35,1.13,1.13,0,0,1,.59.61Zm40.33,0v2h8.65a6.12,6.12,0,0,1,2.5.35,1.33,1.33,0,0,1,.67,1.31v.8a1.35,1.35,0,0,1-.66,1.32,6.11,6.11,0,0,1-2.51.35h-8a6.31,6.31,0,0,1-2.55-.35,1.18,1.18,0,0,1-.56-.64H143.2V81.78h-8.62a6,6,0,0,1-2.53-.35,1.34,1.34,0,0,1-.66-1.31V79.5a1.37,1.37,0,0,1,.66-1.32,6.19,6.19,0,0,1,2.53-.35h7.31a6.27,6.27,0,0,1,2.52.35,1.15,1.15,0,0,1,.6.61Zm123.93,0v2H266a6.21,6.21,0,0,1,2.51.35,1.35,1.35,0,0,1,.67,1.31v.8a1.35,1.35,0,0,1-.66,1.32,6.13,6.13,0,0,1-2.52.35h-8a6.25,6.25,0,0,1-2.54-.35,1.11,1.11,0,0,1-.56-.64h12.22V81.78h-8.61a6.08,6.08,0,0,1-2.54-.35,1.36,1.36,0,0,1-.66-1.31V79.5a1.39,1.39,0,0,1,.66-1.32,6.25,6.25,0,0,1,2.54-.35h7.31a6.27,6.27,0,0,1,2.52.35,1.17,1.17,0,0,1,.59.61Zm-29.11,6.1,7.49-7.06h2.45l7.62,7.06H243.3l-1.75-1.74h-9.28l-1.75,1.74Zm5-2.64h7.38l-3.7-3.61-3.68,3.61Z"/>
<path class="cls-2" d="M17.15,82.56c9.05,5.54,21,9.13,31.83,8,6.79-.74,13.75-4.52,18.77-9.85s8.16-12.26,7.16-19.2c-1.46-10.12-10.75-17.54-20.78-18A10.6,10.6,0,0,0,49.2,44c-3.5,1.58-7.11,2.33-8.42-2.06-.94-3.16,1.42-5.71,4.12-6.88s6.43-1.63,11.47-.9C73,36.52,83.7,48.7,83.35,62.41c-.47,18.3-16.95,30.17-33.89,31.36C37.27,94.63,25,90.5,17.15,82.56Z"/>
<path class="cls-2" d="M77,25.44c-9.06-5.54-21-9.13-31.84-8-6.78.74-13.74,4.52-18.77,9.85s-8.16,12.26-7.15,19.2C20.71,56.66,30,64.08,40,64.56A10.64,10.64,0,0,0,45,64c3.49-1.58,7.11-2.33,8.42,2.06.94,3.16-1.42,5.71-4.12,6.88s-6.44,1.63-11.47.9c-16.67-2.4-27.33-14.58-27-28.29.46-18.3,16.94-30.17,33.89-31.36C56.89,13.37,69.14,17.5,77,25.44Z"/>
</g>
</g>
</svg>
